<mxfile host="app.diagrams.net" modified="2021-06-17T12:23:36.878Z" agent="5.0 (X11)" etag="2xLzyUcQVWOU7jlmMJ4E" version="14.7.10" type="github">
  <diagram id="_CFLyUzvfl6bLSszlQ3U" name="Page-1">
    <mxGraphModel dx="1891" dy="953" grid="1" gridSize="10" guides="1" tooltips="1" connect="1" arrows="1" fold="1" page="1" pageScale="1" pageWidth="850" pageHeight="1100" math="0" shadow="0">
      <root>
        <mxCell id="0" />
        <mxCell id="1" parent="0" />
        <mxCell id="Nfa_XaCnbhnry5962jlV-9" style="rounded=0;orthogonalLoop=1;jettySize=auto;html=1;exitX=1;exitY=1;exitDx=0;exitDy=0;endArrow=none;endFill=0;" parent="1" source="Nfa_XaCnbhnry5962jlV-4" target="Nfa_XaCnbhnry5962jlV-8" edge="1">
          <mxGeometry relative="1" as="geometry" />
        </mxCell>
        <mxCell id="x5e2TLQxFLTN2G-URTBh-13" value="M" style="edgeStyle=none;rounded=0;orthogonalLoop=1;jettySize=auto;html=1;exitX=0;exitY=0.5;exitDx=0;exitDy=0;endArrow=none;endFill=0;" edge="1" parent="1" source="Nfa_XaCnbhnry5962jlV-4" target="x5e2TLQxFLTN2G-URTBh-12">
          <mxGeometry relative="1" as="geometry" />
        </mxCell>
        <mxCell id="xEmpiAdPmZ59cW2vWve8-42" value="M" style="edgeStyle=none;rounded=0;orthogonalLoop=1;jettySize=auto;html=1;entryX=0.108;entryY=0.583;entryDx=0;entryDy=0;entryPerimeter=0;endArrow=none;endFill=0;" edge="1" parent="1" source="Nfa_XaCnbhnry5962jlV-4" target="xEmpiAdPmZ59cW2vWve8-41">
          <mxGeometry relative="1" as="geometry" />
        </mxCell>
        <mxCell id="xEmpiAdPmZ59cW2vWve8-59" style="edgeStyle=none;rounded=0;orthogonalLoop=1;jettySize=auto;html=1;entryX=0;entryY=0;entryDx=0;entryDy=0;endArrow=none;endFill=0;" edge="1" parent="1" source="Nfa_XaCnbhnry5962jlV-4" target="xEmpiAdPmZ59cW2vWve8-58">
          <mxGeometry relative="1" as="geometry" />
        </mxCell>
        <mxCell id="xEmpiAdPmZ59cW2vWve8-61" value="M" style="edgeLabel;html=1;align=center;verticalAlign=middle;resizable=0;points=[];" vertex="1" connectable="0" parent="xEmpiAdPmZ59cW2vWve8-59">
          <mxGeometry x="0.5247" y="-1" relative="1" as="geometry">
            <mxPoint as="offset" />
          </mxGeometry>
        </mxCell>
        <mxCell id="Nfa_XaCnbhnry5962jlV-4" value="agreement" style="whiteSpace=wrap;html=1;align=center;" parent="1" vertex="1">
          <mxGeometry x="215" y="311" width="100" height="40" as="geometry" />
        </mxCell>
        <mxCell id="x5e2TLQxFLTN2G-URTBh-28" value="1" style="edgeStyle=none;rounded=0;orthogonalLoop=1;jettySize=auto;html=1;exitX=0.5;exitY=1;exitDx=0;exitDy=0;entryX=0.5;entryY=0;entryDx=0;entryDy=0;endArrow=none;endFill=0;" edge="1" parent="1" source="Nfa_XaCnbhnry5962jlV-5" target="x5e2TLQxFLTN2G-URTBh-27">
          <mxGeometry relative="1" as="geometry" />
        </mxCell>
        <mxCell id="x5e2TLQxFLTN2G-URTBh-31" style="edgeStyle=none;rounded=0;orthogonalLoop=1;jettySize=auto;html=1;exitX=0.5;exitY=0;exitDx=0;exitDy=0;entryX=0.5;entryY=1;entryDx=0;entryDy=0;endArrow=none;endFill=0;" edge="1" parent="1" source="Nfa_XaCnbhnry5962jlV-5" target="x5e2TLQxFLTN2G-URTBh-30">
          <mxGeometry relative="1" as="geometry" />
        </mxCell>
        <mxCell id="Nfa_XaCnbhnry5962jlV-5" value="basic salary" style="whiteSpace=wrap;html=1;align=center;" parent="1" vertex="1">
          <mxGeometry x="220" y="150" width="100" height="40" as="geometry" />
        </mxCell>
        <mxCell id="Nfa_XaCnbhnry5962jlV-7" value="" style="rounded=0;orthogonalLoop=1;jettySize=auto;html=1;endArrow=none;endFill=0;" parent="1" source="Nfa_XaCnbhnry5962jlV-6" target="Nfa_XaCnbhnry5962jlV-4" edge="1">
          <mxGeometry relative="1" as="geometry" />
        </mxCell>
        <mxCell id="Nfa_XaCnbhnry5962jlV-6" value="Date" style="ellipse;whiteSpace=wrap;html=1;align=center;" parent="1" vertex="1">
          <mxGeometry x="190" y="430" width="100" height="40" as="geometry" />
        </mxCell>
        <mxCell id="Nfa_XaCnbhnry5962jlV-8" value="&lt;u&gt;ID&lt;/u&gt;" style="ellipse;whiteSpace=wrap;html=1;align=center;" parent="1" vertex="1">
          <mxGeometry x="325" y="400" width="100" height="40" as="geometry" />
        </mxCell>
        <mxCell id="Nfa_XaCnbhnry5962jlV-11" style="edgeStyle=none;rounded=0;orthogonalLoop=1;jettySize=auto;html=1;exitX=1;exitY=0.5;exitDx=0;exitDy=0;entryX=0;entryY=1;entryDx=0;entryDy=0;endArrow=none;endFill=0;" parent="1" source="Nfa_XaCnbhnry5962jlV-10" target="Nfa_XaCnbhnry5962jlV-4" edge="1">
          <mxGeometry relative="1" as="geometry" />
        </mxCell>
        <mxCell id="Nfa_XaCnbhnry5962jlV-10" value="jobtitle" style="ellipse;whiteSpace=wrap;html=1;align=center;" parent="1" vertex="1">
          <mxGeometry x="70" y="400" width="100" height="40" as="geometry" />
        </mxCell>
        <mxCell id="x5e2TLQxFLTN2G-URTBh-1" value="compensation" style="rounded=1;arcSize=10;whiteSpace=wrap;html=1;align=center;" vertex="1" parent="1">
          <mxGeometry x="-179" y="310" width="100" height="40" as="geometry" />
        </mxCell>
        <mxCell id="x5e2TLQxFLTN2G-URTBh-5" style="edgeStyle=none;rounded=0;orthogonalLoop=1;jettySize=auto;html=1;exitX=0.5;exitY=1;exitDx=0;exitDy=0;endArrow=none;endFill=0;" edge="1" parent="1" source="x5e2TLQxFLTN2G-URTBh-2" target="x5e2TLQxFLTN2G-URTBh-1">
          <mxGeometry relative="1" as="geometry" />
        </mxCell>
        <mxCell id="x5e2TLQxFLTN2G-URTBh-2" value="com_desc" style="ellipse;whiteSpace=wrap;html=1;align=center;" vertex="1" parent="1">
          <mxGeometry x="-200" y="250" width="100" height="40" as="geometry" />
        </mxCell>
        <mxCell id="x5e2TLQxFLTN2G-URTBh-4" style="edgeStyle=none;rounded=0;orthogonalLoop=1;jettySize=auto;html=1;exitX=0.5;exitY=1;exitDx=0;exitDy=0;endArrow=none;endFill=0;" edge="1" parent="1" source="x5e2TLQxFLTN2G-URTBh-3" target="x5e2TLQxFLTN2G-URTBh-1">
          <mxGeometry relative="1" as="geometry" />
        </mxCell>
        <mxCell id="x5e2TLQxFLTN2G-URTBh-3" value="com_desc2" style="ellipse;whiteSpace=wrap;html=1;align=center;" vertex="1" parent="1">
          <mxGeometry x="-90" y="250" width="100" height="40" as="geometry" />
        </mxCell>
        <mxCell id="x5e2TLQxFLTN2G-URTBh-7" style="edgeStyle=none;rounded=0;orthogonalLoop=1;jettySize=auto;html=1;exitX=0;exitY=0;exitDx=0;exitDy=0;entryX=0.75;entryY=1;entryDx=0;entryDy=0;endArrow=none;endFill=0;" edge="1" parent="1" source="x5e2TLQxFLTN2G-URTBh-6" target="x5e2TLQxFLTN2G-URTBh-1">
          <mxGeometry relative="1" as="geometry" />
        </mxCell>
        <mxCell id="x5e2TLQxFLTN2G-URTBh-6" value="&lt;u&gt;CID&lt;/u&gt;" style="ellipse;whiteSpace=wrap;html=1;align=center;" vertex="1" parent="1">
          <mxGeometry x="-110" y="390" width="100" height="40" as="geometry" />
        </mxCell>
        <mxCell id="x5e2TLQxFLTN2G-URTBh-11" style="edgeStyle=none;rounded=0;orthogonalLoop=1;jettySize=auto;html=1;exitX=0.5;exitY=0;exitDx=0;exitDy=0;endArrow=none;endFill=0;entryX=0.25;entryY=1;entryDx=0;entryDy=0;" edge="1" parent="1" source="x5e2TLQxFLTN2G-URTBh-8" target="x5e2TLQxFLTN2G-URTBh-1">
          <mxGeometry relative="1" as="geometry">
            <mxPoint x="-140" y="360" as="targetPoint" />
          </mxGeometry>
        </mxCell>
        <mxCell id="x5e2TLQxFLTN2G-URTBh-8" value="comtick2" style="ellipse;whiteSpace=wrap;html=1;align=center;" vertex="1" parent="1">
          <mxGeometry x="-220" y="400" width="100" height="40" as="geometry" />
        </mxCell>
        <mxCell id="x5e2TLQxFLTN2G-URTBh-10" style="edgeStyle=none;rounded=0;orthogonalLoop=1;jettySize=auto;html=1;exitX=1;exitY=0;exitDx=0;exitDy=0;entryX=0;entryY=1;entryDx=0;entryDy=0;endArrow=none;endFill=0;" edge="1" parent="1" source="x5e2TLQxFLTN2G-URTBh-9" target="x5e2TLQxFLTN2G-URTBh-1">
          <mxGeometry relative="1" as="geometry" />
        </mxCell>
        <mxCell id="x5e2TLQxFLTN2G-URTBh-9" value="comtick1" style="ellipse;whiteSpace=wrap;html=1;align=center;" vertex="1" parent="1">
          <mxGeometry x="-310" y="370" width="100" height="40" as="geometry" />
        </mxCell>
        <mxCell id="x5e2TLQxFLTN2G-URTBh-14" value="1" style="edgeStyle=none;rounded=0;orthogonalLoop=1;jettySize=auto;html=1;exitX=0;exitY=0.5;exitDx=0;exitDy=0;entryX=1;entryY=0.5;entryDx=0;entryDy=0;endArrow=none;endFill=0;" edge="1" parent="1" source="x5e2TLQxFLTN2G-URTBh-12" target="x5e2TLQxFLTN2G-URTBh-1">
          <mxGeometry relative="1" as="geometry" />
        </mxCell>
        <mxCell id="x5e2TLQxFLTN2G-URTBh-12" value="has" style="shape=rhombus;double=1;perimeter=rhombusPerimeter;whiteSpace=wrap;html=1;align=center;" vertex="1" parent="1">
          <mxGeometry x="20" y="300" width="120" height="60" as="geometry" />
        </mxCell>
        <mxCell id="x5e2TLQxFLTN2G-URTBh-15" value="Probation" style="whiteSpace=wrap;html=1;align=center;" vertex="1" parent="1">
          <mxGeometry x="155" y="590" width="100" height="40" as="geometry" />
        </mxCell>
        <mxCell id="xEmpiAdPmZ59cW2vWve8-39" style="edgeStyle=none;rounded=0;orthogonalLoop=1;jettySize=auto;html=1;entryX=0.5;entryY=0;entryDx=0;entryDy=0;endArrow=none;endFill=0;shape=link;" edge="1" parent="1" source="x5e2TLQxFLTN2G-URTBh-16" target="x5e2TLQxFLTN2G-URTBh-15">
          <mxGeometry relative="1" as="geometry" />
        </mxCell>
        <mxCell id="xEmpiAdPmZ59cW2vWve8-40" style="edgeStyle=none;rounded=0;orthogonalLoop=1;jettySize=auto;html=1;entryX=0.25;entryY=1;entryDx=0;entryDy=0;endArrow=none;endFill=0;" edge="1" parent="1" source="x5e2TLQxFLTN2G-URTBh-16" target="Nfa_XaCnbhnry5962jlV-4">
          <mxGeometry relative="1" as="geometry" />
        </mxCell>
        <mxCell id="x5e2TLQxFLTN2G-URTBh-16" value="Has" style="shape=rhombus;double=1;perimeter=rhombusPerimeter;whiteSpace=wrap;html=1;align=center;" vertex="1" parent="1">
          <mxGeometry x="80" y="480" width="120" height="60" as="geometry" />
        </mxCell>
        <mxCell id="x5e2TLQxFLTN2G-URTBh-20" style="edgeStyle=none;rounded=0;orthogonalLoop=1;jettySize=auto;html=1;exitX=1;exitY=0.5;exitDx=0;exitDy=0;entryX=0;entryY=0.5;entryDx=0;entryDy=0;endArrow=none;endFill=0;" edge="1" parent="1" source="x5e2TLQxFLTN2G-URTBh-19" target="x5e2TLQxFLTN2G-URTBh-15">
          <mxGeometry relative="1" as="geometry" />
        </mxCell>
        <mxCell id="x5e2TLQxFLTN2G-URTBh-19" value="&lt;u&gt;pid&lt;/u&gt;" style="ellipse;whiteSpace=wrap;html=1;align=center;" vertex="1" parent="1">
          <mxGeometry x="10" y="590" width="100" height="40" as="geometry" />
        </mxCell>
        <mxCell id="x5e2TLQxFLTN2G-URTBh-22" style="edgeStyle=none;rounded=0;orthogonalLoop=1;jettySize=auto;html=1;exitX=0.5;exitY=0;exitDx=0;exitDy=0;entryX=0.32;entryY=1;entryDx=0;entryDy=0;entryPerimeter=0;endArrow=none;endFill=0;" edge="1" parent="1" source="x5e2TLQxFLTN2G-URTBh-21" target="x5e2TLQxFLTN2G-URTBh-15">
          <mxGeometry relative="1" as="geometry" />
        </mxCell>
        <mxCell id="x5e2TLQxFLTN2G-URTBh-21" value="p_w_m" style="ellipse;whiteSpace=wrap;html=1;align=center;" vertex="1" parent="1">
          <mxGeometry x="90" y="670" width="100" height="40" as="geometry" />
        </mxCell>
        <mxCell id="x5e2TLQxFLTN2G-URTBh-24" style="edgeStyle=none;rounded=0;orthogonalLoop=1;jettySize=auto;html=1;exitX=0.5;exitY=0;exitDx=0;exitDy=0;entryX=0.75;entryY=1;entryDx=0;entryDy=0;endArrow=none;endFill=0;" edge="1" parent="1" source="x5e2TLQxFLTN2G-URTBh-23" target="x5e2TLQxFLTN2G-URTBh-15">
          <mxGeometry relative="1" as="geometry" />
        </mxCell>
        <mxCell id="x5e2TLQxFLTN2G-URTBh-23" value="probperiod" style="ellipse;whiteSpace=wrap;html=1;align=center;" vertex="1" parent="1">
          <mxGeometry x="220" y="670" width="100" height="40" as="geometry" />
        </mxCell>
        <mxCell id="x5e2TLQxFLTN2G-URTBh-26" style="edgeStyle=none;rounded=0;orthogonalLoop=1;jettySize=auto;html=1;exitX=0;exitY=0.5;exitDx=0;exitDy=0;entryX=1;entryY=0.5;entryDx=0;entryDy=0;endArrow=none;endFill=0;" edge="1" parent="1" source="x5e2TLQxFLTN2G-URTBh-25" target="Nfa_XaCnbhnry5962jlV-5">
          <mxGeometry relative="1" as="geometry" />
        </mxCell>
        <mxCell id="x5e2TLQxFLTN2G-URTBh-25" value="&lt;u&gt;bid&lt;/u&gt;" style="ellipse;whiteSpace=wrap;html=1;align=center;" vertex="1" parent="1">
          <mxGeometry x="370" y="150" width="100" height="40" as="geometry" />
        </mxCell>
        <mxCell id="x5e2TLQxFLTN2G-URTBh-29" value="M" style="edgeStyle=none;rounded=0;orthogonalLoop=1;jettySize=auto;html=1;exitX=0.5;exitY=1;exitDx=0;exitDy=0;endArrow=none;endFill=0;" edge="1" parent="1" source="x5e2TLQxFLTN2G-URTBh-27" target="Nfa_XaCnbhnry5962jlV-4">
          <mxGeometry relative="1" as="geometry" />
        </mxCell>
        <mxCell id="x5e2TLQxFLTN2G-URTBh-27" value="Relationship" style="shape=rhombus;double=1;perimeter=rhombusPerimeter;whiteSpace=wrap;html=1;align=center;" vertex="1" parent="1">
          <mxGeometry x="225" y="225" width="90" height="50" as="geometry" />
        </mxCell>
        <mxCell id="x5e2TLQxFLTN2G-URTBh-30" value="salary" style="ellipse;whiteSpace=wrap;html=1;align=center;" vertex="1" parent="1">
          <mxGeometry x="220" y="70" width="100" height="40" as="geometry" />
        </mxCell>
        <mxCell id="x5e2TLQxFLTN2G-URTBh-33" style="edgeStyle=none;rounded=0;orthogonalLoop=1;jettySize=auto;html=1;exitX=1;exitY=1;exitDx=0;exitDy=0;entryX=0;entryY=0;entryDx=0;entryDy=0;endArrow=none;endFill=0;" edge="1" parent="1" source="x5e2TLQxFLTN2G-URTBh-32" target="Nfa_XaCnbhnry5962jlV-5">
          <mxGeometry relative="1" as="geometry" />
        </mxCell>
        <mxCell id="x5e2TLQxFLTN2G-URTBh-32" value="paid h/w/m/y" style="ellipse;whiteSpace=wrap;html=1;align=center;" vertex="1" parent="1">
          <mxGeometry x="80" y="90" width="100" height="40" as="geometry" />
        </mxCell>
        <mxCell id="x5e2TLQxFLTN2G-URTBh-35" style="edgeStyle=none;rounded=0;orthogonalLoop=1;jettySize=auto;html=1;exitX=1;exitY=0.5;exitDx=0;exitDy=0;endArrow=none;endFill=0;" edge="1" parent="1" source="x5e2TLQxFLTN2G-URTBh-34" target="Nfa_XaCnbhnry5962jlV-5">
          <mxGeometry relative="1" as="geometry" />
        </mxCell>
        <mxCell id="x5e2TLQxFLTN2G-URTBh-34" value="payon_w_m" style="ellipse;whiteSpace=wrap;html=1;align=center;" vertex="1" parent="1">
          <mxGeometry x="50" y="150" width="100" height="40" as="geometry" />
        </mxCell>
        <mxCell id="x5e2TLQxFLTN2G-URTBh-37" style="edgeStyle=none;rounded=0;orthogonalLoop=1;jettySize=auto;html=1;exitX=0;exitY=1;exitDx=0;exitDy=0;entryX=1;entryY=0;entryDx=0;entryDy=0;endArrow=none;endFill=0;" edge="1" parent="1" source="x5e2TLQxFLTN2G-URTBh-36" target="Nfa_XaCnbhnry5962jlV-5">
          <mxGeometry relative="1" as="geometry" />
        </mxCell>
        <mxCell id="x5e2TLQxFLTN2G-URTBh-36" value="other_desc" style="ellipse;whiteSpace=wrap;html=1;align=center;" vertex="1" parent="1">
          <mxGeometry x="340" y="80" width="100" height="40" as="geometry" />
        </mxCell>
        <mxCell id="xEmpiAdPmZ59cW2vWve8-9" style="edgeStyle=none;rounded=0;orthogonalLoop=1;jettySize=auto;html=1;exitX=0.5;exitY=1;exitDx=0;exitDy=0;entryX=0.5;entryY=0;entryDx=0;entryDy=0;endArrow=none;endFill=0;" edge="1" parent="1" source="xEmpiAdPmZ59cW2vWve8-1" target="xEmpiAdPmZ59cW2vWve8-8">
          <mxGeometry relative="1" as="geometry" />
        </mxCell>
        <mxCell id="xEmpiAdPmZ59cW2vWve8-17" style="edgeStyle=none;rounded=0;orthogonalLoop=1;jettySize=auto;html=1;exitX=0;exitY=0.5;exitDx=0;exitDy=0;entryX=0.936;entryY=0.489;entryDx=0;entryDy=0;entryPerimeter=0;endArrow=none;endFill=0;shape=link;" edge="1" parent="1" source="xEmpiAdPmZ59cW2vWve8-1" target="xEmpiAdPmZ59cW2vWve8-10">
          <mxGeometry relative="1" as="geometry" />
        </mxCell>
        <mxCell id="xEmpiAdPmZ59cW2vWve8-1" value="overtime" style="whiteSpace=wrap;html=1;align=center;" vertex="1" parent="1">
          <mxGeometry x="570" y="220" width="100" height="40" as="geometry" />
        </mxCell>
        <mxCell id="xEmpiAdPmZ59cW2vWve8-4" style="edgeStyle=none;rounded=0;orthogonalLoop=1;jettySize=auto;html=1;exitX=0.5;exitY=1;exitDx=0;exitDy=0;entryX=0.5;entryY=0;entryDx=0;entryDy=0;endArrow=none;endFill=0;" edge="1" parent="1" source="xEmpiAdPmZ59cW2vWve8-2" target="xEmpiAdPmZ59cW2vWve8-1">
          <mxGeometry relative="1" as="geometry" />
        </mxCell>
        <mxCell id="xEmpiAdPmZ59cW2vWve8-2" value="&lt;u&gt;OID&lt;/u&gt;" style="ellipse;whiteSpace=wrap;html=1;align=center;" vertex="1" parent="1">
          <mxGeometry x="600" y="140" width="100" height="40" as="geometry" />
        </mxCell>
        <mxCell id="xEmpiAdPmZ59cW2vWve8-5" style="edgeStyle=none;rounded=0;orthogonalLoop=1;jettySize=auto;html=1;exitX=0;exitY=0.5;exitDx=0;exitDy=0;entryX=1;entryY=0.25;entryDx=0;entryDy=0;endArrow=none;endFill=0;" edge="1" parent="1" source="xEmpiAdPmZ59cW2vWve8-3" target="xEmpiAdPmZ59cW2vWve8-1">
          <mxGeometry relative="1" as="geometry" />
        </mxCell>
        <mxCell id="xEmpiAdPmZ59cW2vWve8-3" value="ot_rate" style="ellipse;whiteSpace=wrap;html=1;align=center;" vertex="1" parent="1">
          <mxGeometry x="720" y="210" width="100" height="40" as="geometry" />
        </mxCell>
        <mxCell id="xEmpiAdPmZ59cW2vWve8-7" style="edgeStyle=none;rounded=0;orthogonalLoop=1;jettySize=auto;html=1;exitX=0;exitY=0.5;exitDx=0;exitDy=0;entryX=0.75;entryY=1;entryDx=0;entryDy=0;endArrow=none;endFill=0;" edge="1" parent="1" source="xEmpiAdPmZ59cW2vWve8-6" target="xEmpiAdPmZ59cW2vWve8-1">
          <mxGeometry relative="1" as="geometry" />
        </mxCell>
        <mxCell id="xEmpiAdPmZ59cW2vWve8-6" value="beyond_othours" style="ellipse;whiteSpace=wrap;html=1;align=center;" vertex="1" parent="1">
          <mxGeometry x="700" y="280" width="100" height="40" as="geometry" />
        </mxCell>
        <mxCell id="xEmpiAdPmZ59cW2vWve8-8" value="ot_d_w" style="ellipse;whiteSpace=wrap;html=1;align=center;" vertex="1" parent="1">
          <mxGeometry x="570" y="300" width="100" height="40" as="geometry" />
        </mxCell>
        <mxCell id="xEmpiAdPmZ59cW2vWve8-12" style="edgeStyle=none;rounded=0;orthogonalLoop=1;jettySize=auto;html=1;exitX=0;exitY=0.5;exitDx=0;exitDy=0;endArrow=none;endFill=0;" edge="1" parent="1" source="xEmpiAdPmZ59cW2vWve8-10" target="Nfa_XaCnbhnry5962jlV-4">
          <mxGeometry relative="1" as="geometry" />
        </mxCell>
        <mxCell id="xEmpiAdPmZ59cW2vWve8-10" value="has" style="shape=rhombus;double=1;perimeter=rhombusPerimeter;whiteSpace=wrap;html=1;align=center;" vertex="1" parent="1">
          <mxGeometry x="382" y="231" width="120" height="60" as="geometry" />
        </mxCell>
        <mxCell id="xEmpiAdPmZ59cW2vWve8-20" style="edgeStyle=none;rounded=0;orthogonalLoop=1;jettySize=auto;html=1;exitX=0.5;exitY=1;exitDx=0;exitDy=0;entryX=0.5;entryY=0;entryDx=0;entryDy=0;endArrow=none;endFill=0;" edge="1" parent="1" source="xEmpiAdPmZ59cW2vWve8-18" target="xEmpiAdPmZ59cW2vWve8-19">
          <mxGeometry relative="1" as="geometry" />
        </mxCell>
        <mxCell id="xEmpiAdPmZ59cW2vWve8-18" value="Term" style="whiteSpace=wrap;html=1;align=center;" vertex="1" parent="1">
          <mxGeometry x="595" y="390" width="100" height="40" as="geometry" />
        </mxCell>
        <mxCell id="xEmpiAdPmZ59cW2vWve8-27" style="edgeStyle=none;rounded=0;orthogonalLoop=1;jettySize=auto;html=1;exitX=1;exitY=1;exitDx=0;exitDy=0;entryX=0.11;entryY=-0.125;entryDx=0;entryDy=0;entryPerimeter=0;endArrow=none;endFill=0;" edge="1" parent="1" source="xEmpiAdPmZ59cW2vWve8-19" target="xEmpiAdPmZ59cW2vWve8-22">
          <mxGeometry relative="1" as="geometry" />
        </mxCell>
        <mxCell id="xEmpiAdPmZ59cW2vWve8-28" style="edgeStyle=none;rounded=0;orthogonalLoop=1;jettySize=auto;html=1;exitX=0;exitY=1;exitDx=0;exitDy=0;entryX=0.62;entryY=-0.058;entryDx=0;entryDy=0;entryPerimeter=0;endArrow=none;endFill=0;" edge="1" parent="1" source="xEmpiAdPmZ59cW2vWve8-19" target="xEmpiAdPmZ59cW2vWve8-21">
          <mxGeometry relative="1" as="geometry" />
        </mxCell>
        <mxCell id="xEmpiAdPmZ59cW2vWve8-19" value="D" style="ellipse;whiteSpace=wrap;html=1;align=center;" vertex="1" parent="1">
          <mxGeometry x="620" y="480" width="50" height="40" as="geometry" />
        </mxCell>
        <mxCell id="xEmpiAdPmZ59cW2vWve8-21" value="FIXED Term" style="whiteSpace=wrap;html=1;align=center;" vertex="1" parent="1">
          <mxGeometry x="520" y="540" width="100" height="40" as="geometry" />
        </mxCell>
        <mxCell id="xEmpiAdPmZ59cW2vWve8-22" value="At Will" style="whiteSpace=wrap;html=1;align=center;" vertex="1" parent="1">
          <mxGeometry x="676" y="540" width="100" height="40" as="geometry" />
        </mxCell>
        <mxCell id="xEmpiAdPmZ59cW2vWve8-26" style="edgeStyle=none;rounded=0;orthogonalLoop=1;jettySize=auto;html=1;exitX=0;exitY=0.5;exitDx=0;exitDy=0;entryX=1;entryY=0.5;entryDx=0;entryDy=0;endArrow=none;endFill=0;" edge="1" parent="1" source="xEmpiAdPmZ59cW2vWve8-25" target="xEmpiAdPmZ59cW2vWve8-18">
          <mxGeometry relative="1" as="geometry" />
        </mxCell>
        <mxCell id="xEmpiAdPmZ59cW2vWve8-25" value="&lt;u&gt;TID&lt;/u&gt;" style="ellipse;whiteSpace=wrap;html=1;align=center;" vertex="1" parent="1">
          <mxGeometry x="745" y="380" width="100" height="40" as="geometry" />
        </mxCell>
        <mxCell id="xEmpiAdPmZ59cW2vWve8-37" style="edgeStyle=none;rounded=0;orthogonalLoop=1;jettySize=auto;html=1;endArrow=none;endFill=0;" edge="1" parent="1" source="xEmpiAdPmZ59cW2vWve8-29" target="xEmpiAdPmZ59cW2vWve8-21">
          <mxGeometry relative="1" as="geometry" />
        </mxCell>
        <mxCell id="xEmpiAdPmZ59cW2vWve8-29" value="Start Date" style="ellipse;whiteSpace=wrap;html=1;align=center;" vertex="1" parent="1">
          <mxGeometry x="460" y="610" width="100" height="40" as="geometry" />
        </mxCell>
        <mxCell id="xEmpiAdPmZ59cW2vWve8-33" style="edgeStyle=none;rounded=0;orthogonalLoop=1;jettySize=auto;html=1;entryX=0.75;entryY=1;entryDx=0;entryDy=0;endArrow=none;endFill=0;" edge="1" parent="1" source="xEmpiAdPmZ59cW2vWve8-31" target="xEmpiAdPmZ59cW2vWve8-21">
          <mxGeometry relative="1" as="geometry" />
        </mxCell>
        <mxCell id="xEmpiAdPmZ59cW2vWve8-31" value="End Date" style="ellipse;whiteSpace=wrap;html=1;align=center;" vertex="1" parent="1">
          <mxGeometry x="576" y="610" width="100" height="40" as="geometry" />
        </mxCell>
        <mxCell id="xEmpiAdPmZ59cW2vWve8-35" style="edgeStyle=none;rounded=0;orthogonalLoop=1;jettySize=auto;html=1;entryX=0.75;entryY=1;entryDx=0;entryDy=0;endArrow=none;endFill=0;" edge="1" parent="1" source="xEmpiAdPmZ59cW2vWve8-34" target="xEmpiAdPmZ59cW2vWve8-22">
          <mxGeometry relative="1" as="geometry" />
        </mxCell>
        <mxCell id="xEmpiAdPmZ59cW2vWve8-34" value="Begin Date" style="ellipse;whiteSpace=wrap;html=1;align=center;" vertex="1" parent="1">
          <mxGeometry x="745" y="620" width="100" height="40" as="geometry" />
        </mxCell>
        <mxCell id="xEmpiAdPmZ59cW2vWve8-46" value="1" style="edgeStyle=none;rounded=0;orthogonalLoop=1;jettySize=auto;html=1;entryX=0;entryY=0.5;entryDx=0;entryDy=0;endArrow=none;endFill=0;" edge="1" parent="1" source="xEmpiAdPmZ59cW2vWve8-41" target="xEmpiAdPmZ59cW2vWve8-18">
          <mxGeometry relative="1" as="geometry" />
        </mxCell>
        <mxCell id="xEmpiAdPmZ59cW2vWve8-41" value="Has" style="shape=rhombus;double=1;perimeter=rhombusPerimeter;whiteSpace=wrap;html=1;align=center;" vertex="1" parent="1">
          <mxGeometry x="400" y="340" width="120" height="60" as="geometry" />
        </mxCell>
        <mxCell id="xEmpiAdPmZ59cW2vWve8-47" style="edgeStyle=none;rounded=0;orthogonalLoop=1;jettySize=auto;html=1;exitX=0.5;exitY=0;exitDx=0;exitDy=0;entryX=0.5;entryY=1;entryDx=0;entryDy=0;endArrow=none;endFill=0;" edge="1" source="xEmpiAdPmZ59cW2vWve8-48" target="xEmpiAdPmZ59cW2vWve8-51" parent="1">
          <mxGeometry relative="1" as="geometry" />
        </mxCell>
        <mxCell id="xEmpiAdPmZ59cW2vWve8-48" value="basic salary probation" style="whiteSpace=wrap;html=1;align=center;" vertex="1" parent="1">
          <mxGeometry x="480" y="760" width="100" height="40" as="geometry" />
        </mxCell>
        <mxCell id="xEmpiAdPmZ59cW2vWve8-49" style="edgeStyle=none;rounded=0;orthogonalLoop=1;jettySize=auto;html=1;exitX=0;exitY=0.5;exitDx=0;exitDy=0;entryX=1;entryY=0.5;entryDx=0;entryDy=0;endArrow=none;endFill=0;" edge="1" source="xEmpiAdPmZ59cW2vWve8-50" target="xEmpiAdPmZ59cW2vWve8-48" parent="1">
          <mxGeometry relative="1" as="geometry" />
        </mxCell>
        <mxCell id="xEmpiAdPmZ59cW2vWve8-50" value="&lt;u&gt;bid&lt;/u&gt;" style="ellipse;whiteSpace=wrap;html=1;align=center;" vertex="1" parent="1">
          <mxGeometry x="630" y="760" width="100" height="40" as="geometry" />
        </mxCell>
        <mxCell id="xEmpiAdPmZ59cW2vWve8-51" value="salary" style="ellipse;whiteSpace=wrap;html=1;align=center;" vertex="1" parent="1">
          <mxGeometry x="480" y="680" width="100" height="40" as="geometry" />
        </mxCell>
        <mxCell id="xEmpiAdPmZ59cW2vWve8-52" style="edgeStyle=none;rounded=0;orthogonalLoop=1;jettySize=auto;html=1;exitX=1;exitY=1;exitDx=0;exitDy=0;entryX=0;entryY=0;entryDx=0;entryDy=0;endArrow=none;endFill=0;" edge="1" source="xEmpiAdPmZ59cW2vWve8-53" target="xEmpiAdPmZ59cW2vWve8-48" parent="1">
          <mxGeometry relative="1" as="geometry" />
        </mxCell>
        <mxCell id="xEmpiAdPmZ59cW2vWve8-53" value="paid h/w/m/y" style="ellipse;whiteSpace=wrap;html=1;align=center;" vertex="1" parent="1">
          <mxGeometry x="340" y="700" width="100" height="40" as="geometry" />
        </mxCell>
        <mxCell id="xEmpiAdPmZ59cW2vWve8-54" style="edgeStyle=none;rounded=0;orthogonalLoop=1;jettySize=auto;html=1;exitX=1;exitY=0.5;exitDx=0;exitDy=0;endArrow=none;endFill=0;" edge="1" source="xEmpiAdPmZ59cW2vWve8-55" target="xEmpiAdPmZ59cW2vWve8-48" parent="1">
          <mxGeometry relative="1" as="geometry" />
        </mxCell>
        <mxCell id="xEmpiAdPmZ59cW2vWve8-55" value="payon_w_m" style="ellipse;whiteSpace=wrap;html=1;align=center;" vertex="1" parent="1">
          <mxGeometry x="310" y="760" width="100" height="40" as="geometry" />
        </mxCell>
        <mxCell id="xEmpiAdPmZ59cW2vWve8-56" style="edgeStyle=none;rounded=0;orthogonalLoop=1;jettySize=auto;html=1;exitX=0;exitY=1;exitDx=0;exitDy=0;entryX=1;entryY=0;entryDx=0;entryDy=0;endArrow=none;endFill=0;" edge="1" source="xEmpiAdPmZ59cW2vWve8-57" target="xEmpiAdPmZ59cW2vWve8-48" parent="1">
          <mxGeometry relative="1" as="geometry" />
        </mxCell>
        <mxCell id="xEmpiAdPmZ59cW2vWve8-57" value="other_desc" style="ellipse;whiteSpace=wrap;html=1;align=center;" vertex="1" parent="1">
          <mxGeometry x="600" y="690" width="100" height="40" as="geometry" />
        </mxCell>
        <mxCell id="xEmpiAdPmZ59cW2vWve8-60" value="1" style="edgeStyle=none;rounded=0;orthogonalLoop=1;jettySize=auto;html=1;entryX=0.25;entryY=0;entryDx=0;entryDy=0;endArrow=none;endFill=0;" edge="1" parent="1" source="xEmpiAdPmZ59cW2vWve8-58" target="xEmpiAdPmZ59cW2vWve8-48">
          <mxGeometry relative="1" as="geometry" />
        </mxCell>
        <mxCell id="xEmpiAdPmZ59cW2vWve8-58" value="has" style="shape=rhombus;double=1;perimeter=rhombusPerimeter;whiteSpace=wrap;html=1;align=center;" vertex="1" parent="1">
          <mxGeometry x="315" y="540" width="120" height="60" as="geometry" />
        </mxCell>
      </root>
    </mxGraphModel>
  </diagram>
</mxfile>
